# This file uses centimeters as units for non-parametric coordinates.

mtllib tree1.mtl
g default
v 7.195315 -0.033148 -4.903840
v 7.205174 1.326884 -4.769285
v 7.410494 -0.033148 -4.747503
v 7.279479 1.326884 -4.715301
v 7.328303 -0.033148 -4.494546
v 7.251097 1.326884 -4.627951
v 7.062327 -0.033148 -4.494546
v 7.159253 1.326884 -4.627951
v 6.980137 -0.033148 -4.747503
v 7.130872 1.326884 -4.715301
v 7.153944 1.905867 -4.290713
v 7.099643 1.905867 -4.330166
v 7.133203 1.905867 -4.226878
v 7.066082 1.905867 -4.226878
v 7.045341 1.905867 -4.290713
v 7.299304 1.450177 -4.631854
v 7.175004 1.449809 -4.722526
v 7.279479 1.326884 -4.715301
v 7.205174 1.326884 -4.769285
v 7.175004 1.449809 -4.722526
v 7.299304 1.450177 -4.631854
v 7.518919 1.993449 -4.944695
v 7.489905 1.975867 -4.973877
v 7.481080 2.016132 -4.971649
v 7.506228 2.031509 -4.946319
v 7.881556 2.183917 -5.085700
v 7.304223 2.091899 -4.860017
v 7.613277 1.939066 -5.309086
v 7.644294 1.743435 -5.016879
v 7.431153 2.301523 -5.177761
v 7.688532 1.954664 -4.759229
v 7.697589 2.312778 -4.880116
v 6.885334 2.541140 -4.030556
v 7.382517 1.545180 -4.129484
v 6.448240 1.919127 -4.047847
v 6.698667 1.890565 -4.624722
v 7.040232 1.843962 -3.576644
v 7.250984 2.120897 -4.591165
v 7.382788 2.333538 -3.965070
vn 0.586102 0.075600 -0.806703
vn 0.586102 0.075600 -0.806703
vn 0.586102 0.075600 -0.806703
vn 0.586102 0.075600 -0.806703
vn 0.947703 0.084000 0.307901
vn 0.947703 0.084000 0.307901
vn 0.947703 0.084000 0.307901
vn 0.947703 0.084000 0.307901
vn 0.000000 0.097603 0.995225
vn 0.000000 0.097603 0.995225
vn 0.000000 0.097603 0.995225
vn 0.000000 0.097603 0.995225
vn -0.712594 0.336897 -0.615395
vn -0.712594 0.336897 -0.615395
vn -0.712594 0.336897 -0.615395
vn -0.712594 0.336897 -0.615395
vn -0.712594 0.336897 -0.615395
vn -0.585683 0.083998 -0.806176
vn -0.585683 0.083998 -0.806176
vn -0.585683 0.083998 -0.806176
vn -0.585683 0.083998 -0.806176
vn -0.946526 0.097603 0.307509
vn -0.946526 0.097603 0.307509
vn -0.946526 0.097603 0.307509
vn -0.946526 0.097603 0.307509
vn 0.000000 -1.000000 0.000000
vn 0.000000 -1.000000 0.000000
vn 0.000000 -1.000000 0.000000
vn 0.000000 -1.000000 0.000000
vn 0.000000 -1.000000 0.000000
vn 0.000000 1.000000 0.000000
vn 0.000000 1.000000 0.000000
vn 0.000000 1.000000 0.000000
vn 0.000000 1.000000 0.000000
vn 0.000000 1.000000 0.000000
vn -0.892801 -0.344600 0.290100
vn -0.892801 -0.344600 0.290100
vn -0.892801 -0.344600 0.290100
vn -0.892801 -0.344600 0.290100
vn 0.000000 -0.569428 0.822041
vn 0.000000 -0.569428 0.822041
vn 0.000000 -0.569428 0.822041
vn 0.000000 -0.569428 0.822041
vn 0.839904 -0.190501 0.508203
vn 0.839904 -0.190501 0.508203
vn 0.839904 -0.190501 0.508203
vn 0.839904 -0.190501 0.508203
vn 0.839904 -0.190501 0.508203
vn 0.000000 0.000000 1.000000
vn 0.000000 0.000000 1.000000
vn 0.000000 0.000000 1.000000
vn 0.000000 0.000000 1.000000
vn 0.460523 0.621431 -0.633832
vn 0.460523 0.621431 -0.633832
vn 0.460523 0.621431 -0.633832
vn 0.460523 0.621431 -0.633832
vn -0.546403 0.553103 0.628904
vn -0.546403 0.553103 0.628904
vn -0.546403 0.553103 0.628904
vn -0.546403 0.553103 0.628904
vn 0.000000 0.000000 1.000000
vn 0.000000 0.000000 1.000000
vn 0.000000 0.000000 1.000000
vn 0.000000 0.000000 1.000000
vn 0.000000 0.000000 1.000000
vn 0.000000 0.000000 1.000000
vn 0.000000 0.000000 1.000000
vn 0.000000 0.000000 1.000000
vn 0.000000 0.000000 1.000000
vn 0.000000 0.000000 1.000000
vn 0.000000 0.000000 1.000000
vn 0.000000 0.000000 1.000000
vn 0.640478 0.181694 -0.746174
vn 0.640478 0.181694 -0.746174
vn 0.640478 0.181694 -0.746174
vn 0.640478 0.181694 -0.746174
vn 0.930181 -0.197896 0.309194
vn 0.930181 -0.197896 0.309194
vn 0.930181 -0.197896 0.309194
vn 0.930181 -0.197896 0.309194
vn -0.679418 0.057201 -0.731519
vn -0.679418 0.057201 -0.731519
vn -0.679418 0.057201 -0.731519
vn -0.679418 0.057201 -0.731519
vn 0.603795 -0.456196 -0.653695
vn 0.603795 -0.456196 -0.653695
vn 0.603795 -0.456196 -0.653695
vn 0.603795 -0.456196 -0.653695
vn 0.777013 -0.481808 -0.405107
vn 0.777013 -0.481808 -0.405107
vn 0.777013 -0.481808 -0.405107
vn -0.441709 0.819817 0.364408
vn -0.441709 0.819817 0.364408
vn -0.441709 0.819817 0.364408
vn -0.131801 0.320002 0.938204
vn -0.131801 0.320002 0.938204
vn -0.131801 0.320002 0.938204
vn 0.786368 0.179593 0.591076
vn 0.786368 0.179593 0.591076
vn 0.786368 0.179593 0.591076
vn -0.403011 -0.672619 0.620617
vn -0.403011 -0.672619 0.620617
vn -0.403011 -0.672619 0.620617
vn 0.874196 -0.438198 0.209199
vn 0.874196 -0.438198 0.209199
vn 0.874196 -0.438198 0.209199
vn 0.298100 0.905801 -0.301100
vn 0.298100 0.905801 -0.301100
vn 0.298100 0.905801 -0.301100
vn 0.290385 0.451576 -0.843656
vn 0.290385 0.451576 -0.843656
vn 0.290385 0.451576 -0.843656
vn -0.835827 -0.241308 -0.493116
vn -0.835827 -0.241308 -0.493116
vn -0.835827 -0.241308 -0.493116
vn -0.746299 -0.586999 -0.313800
vn -0.746299 -0.586999 -0.313800
vn -0.746299 -0.586999 -0.313800
vn -0.759704 0.543703 -0.356702
vn -0.759704 0.543703 -0.356702
vn -0.759704 0.543703 -0.356702
vn 0.814200 -0.118800 0.568300
vn 0.814200 -0.118800 0.568300
vn 0.814200 -0.118800 0.568300
vn 0.974294 0.045700 -0.220599
vn 0.974294 0.045700 -0.220599
vn 0.974294 0.045700 -0.220599
vn 0.398910 0.839422 -0.369110
vn 0.398910 0.839422 -0.369110
vn 0.398910 0.839422 -0.369110
vn 0.281097 -0.560495 -0.778993
vn 0.281097 -0.560495 -0.778993
vn 0.281097 -0.560495 -0.778993
vn -0.246990 0.691173 -0.679173
vn -0.246990 0.691173 -0.679173
vn -0.246990 0.691173 -0.679173
vn 0.126296 0.560782 0.818274
vn 0.126296 0.560782 0.818274
vn 0.126296 0.560782 0.818274
vn -0.550603 0.366102 0.750204
vn -0.550603 0.366102 0.750204
vn -0.550603 0.366102 0.750204
vn -0.335815 -0.899841 0.278413
vn -0.335815 -0.899841 0.278413
vn -0.335815 -0.899841 0.278413
vn -0.377907 -0.918216 -0.118602
vn -0.377907 -0.918216 -0.118602
vn -0.377907 -0.918216 -0.118602
s off
f 1//1 2//2 4//3 3//4
f 3//5 4//6 6//7 5//8
f 5//9 6//10 8//11 7//12
f 2//13 10//14 15//15 12//16 17//17
f 9//18 10//19 2//20 1//21
f 7//22 8//23 10//24 9//25
f 1//26 3//27 5//28 7//29 9//30
f 11//31 12//32 15//33 14//34 13//35
f 10//36 8//37 14//38 15//39
f 8//40 6//41 13//42 14//43
f 6//44 4//45 16//46 11//47 13//48
f 17//49 16//50 21//51 20//52
f 16//53 17//54 12//55 11//56
f 20//57 21//58 25//59 24//60
f 16//61 4//62 18//63 21//64
f 2//65 17//66 20//67 19//68
f 4//69 2//70 19//71 18//72
f 22//73 23//74 24//75 25//76
f 21//77 18//78 22//79 25//80
f 19//81 20//82 24//83 23//84
f 18//85 19//86 23//87 22//88
f 29//89 28//90 26//91
f 32//92 30//93 27//94
f 31//95 32//96 27//97
f 31//98 26//99 32//100
f 29//101 31//102 27//103
f 29//104 26//105 31//106
f 26//107 30//108 32//109
f 28//110 30//111 26//112
f 28//113 27//114 30//115
f 28//116 29//117 27//118
f 36//119 35//120 33//121
f 39//122 37//123 34//124
f 38//125 39//126 34//127
f 38//128 33//129 39//130
f 36//131 38//132 34//133
f 36//134 33//135 38//136
f 33//137 37//138 39//139
f 35//140 37//141 33//142
f 35//143 34//144 37//145
f 35//146 36//147 34//148
